# xmcd
# Copyright (C) 1995-1998 Ti Kan
#
# Track frame offsets:
#       151
#       3722
#       19036
#       19398
#       43239
#       43712
#       60450
#       61318
#       74288
#       81463
#       104014
#       133430
#       159688
#       160181
#       178104
#       190583
#       218444
#
# Disc length: 3201 seconds
#
# Revision: 0
# Processed by: cddbd v1.5PL3 Copyright (c) Steve Scherf et al.
# Submitted via: CD-Transfer v1.0
#
DISCID=f50c7f11
DTITLE=Body Count - Body Count
DYEAR=1900
DGENRE=
TTITLE0=Smoked York
TTITLE1=Body Count In The House
TTITLE2=Now Sports
TTITLE3=Body Count
TTITLE4=A Statistic
TTITLE5=Bowles Of The Devil
TTITLE6=The Real Problem
TTITLE7=Kkk Bitch
TTITLE8=C Note
TTITLE9=Vodoo
TTITLE10=The Winner Loses
TTITLE11=There Goes The Neighborhood
TTITLE12=Oprah
TTITLE13=Evil Dick
TTITLE14=Body Count Anthem
TTITLE15=Moma's Gotta Die Tonight
TTITLE16=Ice-T Freedom Of Speech
EXTD=
EXTT0=
EXTT1=
EXTT2=
EXTT3=
EXTT4=
EXTT5=
EXTT6=
EXTT7=
EXTT8=
EXTT9=
EXTT10=
EXTT11=
EXTT12=
EXTT13=
EXTT14=
EXTT15=
EXTT16=
PLAYORDER=
